<?xml version="1.0" standalone="no"?>
<!DOCTYPE svg PUBLIC "-//W3C//DTD SVG 20010904//EN"
 "http://www.w3.org/TR/2001/REC-SVG-20010904/DTD/svg10.dtd">
<svg version="1.0" xmlns="http://www.w3.org/2000/svg"
 width="438.000000pt" height="143.000000pt" viewBox="0 0 438.000000 143.000000"
 preserveAspectRatio="xMidYMid meet">

<g transform="translate(0.000000,143.000000) scale(0.100000,-0.100000)"
fill="#000000" stroke="none">
<path d="M1972 1028 c-7 -7 -12 -42 -12 -85 l0 -74 -29 22 c-63 46 -176 32
-236 -31 -37 -38 -56 -112 -44 -174 11 -59 20 -76 63 -114 66 -58 150 -65 220
-17 l36 24 0 -25 c0 -21 4 -25 23 -22 l22 3 3 239 c2 167 -1 243 -9 252 -14
17 -22 17 -37 2z m-72 -173 c47 -24 60 -52 60 -128 0 -86 -19 -121 -76 -143
-95 -36 -184 33 -184 144 0 105 109 174 200 127z"/>
<path d="M387 1024 c-4 -4 -7 -114 -7 -244 0 -199 2 -240 15 -250 12 -10 18
-10 30 0 13 11 15 48 13 254 -3 234 -4 241 -23 244 -12 2 -24 0 -28 -4z"/>
<path d="M1514 1016 c-11 -29 1 -61 23 -64 24 -4 38 25 28 58 -7 23 -43 27
-51 6z"/>
<path d="M960 860 l0 -160 105 0 105 0 0 100 0 100 135 0 135 0 0 60 0 60
-240 0 -240 0 0 -160z m440 100 c0 -19 -7 -20 -130 -20 l-130 0 0 -100 0 -100
-75 0 -75 0 0 120 0 120 205 0 c198 0 205 -1 205 -20z"/>
<path d="M3088 1010 c-41 -12 -87 -48 -104 -83 -20 -37 -30 -171 -19 -253 6
-52 12 -64 50 -100 47 -46 92 -57 165 -44 82 15 134 79 134 165 0 147 -173
227 -276 128 -25 -24 -28 -25 -28 -7 0 117 99 182 205 135 55 -24 75 -26 75
-8 0 32 -85 78 -142 76 -18 0 -45 -4 -60 -9z m99 -205 c38 -11 73 -62 73 -107
0 -82 -63 -136 -146 -123 -121 18 -129 200 -11 234 32 9 41 8 84 -4z"/>
<path d="M3488 1007 c-70 -32 -97 -81 -105 -190 -6 -93 8 -186 34 -222 50 -67
161 -86 238 -40 65 37 80 78 80 210 0 127 -5 152 -41 195 -46 55 -140 76 -206
47z m152 -64 c19 -17 35 -44 40 -68 11 -46 13 -143 3 -198 -7 -48 -52 -94 -99
-103 -46 -9 -110 20 -130 58 -19 37 -29 140 -19 214 6 47 13 64 40 91 29 29
40 33 84 33 41 0 56 -5 81 -27z"/>
<path d="M2560 990 c0 -19 7 -20 123 -20 l122 -1 -73 -67 c-89 -82 -96 -123
-18 -101 60 17 126 -39 126 -106 0 -34 -24 -80 -52 -99 -26 -19 -106 -21 -142
-5 -23 11 -56 62 -56 89 0 6 -10 10 -22 8 -19 -2 -22 -8 -20 -32 6 -52 31 -87
79 -108 96 -42 214 -5 249 78 39 92 -8 200 -95 219 l-28 6 63 61 c99 95 96 98
-96 98 -153 0 -160 -1 -160 -20z"/>
<path d="M527 913 c-4 -3 -7 -91 -7 -195 l0 -189 23 3 c21 3 22 8 27 123 3 66
10 129 17 140 26 46 62 68 116 73 46 4 57 1 85 -23 41 -35 52 -77 52 -208 0
-107 0 -108 23 -105 21 3 22 7 25 123 3 141 -10 191 -64 231 -62 48 -170 45
-223 -5 l-31 -29 0 28 c0 16 -7 30 -16 34 -19 7 -19 7 -27 -1z"/>
<path d="M1520 906 c-7 -9 -10 -74 -8 -192 3 -177 3 -179 26 -182 l22 -3 0
189 c0 155 -3 191 -14 195 -8 3 -19 0 -26 -7z"/>
<path d="M2200 909 c-69 -28 -113 -100 -113 -184 0 -119 75 -195 193 -195 86
0 169 47 138 78 -8 8 -21 6 -49 -9 -24 -12 -58 -19 -94 -19 -49 0 -59 4 -89
33 -19 17 -37 42 -41 55 l-6 22 159 0 c181 0 188 3 176 67 -11 63 -49 119 -97
142 -47 23 -133 27 -177 10z m149 -53 c34 -18 46 -33 66 -79 l15 -37 -145 0
c-160 0 -161 1 -130 61 32 61 128 89 194 55z"/>
<path d="M1220 760 l0 -100 -130 0 -130 0 0 -60 0 -60 235 0 235 0 0 160 0
160 -105 0 -105 0 0 -100z m180 -60 l0 -120 -205 0 c-198 0 -205 1 -205 20 0
19 7 20 130 20 l130 0 0 100 0 100 75 0 75 0 0 -120z"/>
<path d="M2258 399 c-10 -5 -18 -21 -18 -35 0 -19 8 -28 36 -40 50 -21 43 -50
-11 -48 -35 2 -37 0 -20 -12 25 -18 50 -18 69 2 25 25 19 42 -25 69 -46 30
-46 51 0 49 17 -1 31 2 31 7 0 5 -4 9 -9 9 -5 0 -15 2 -23 5 -7 2 -21 0 -30
-6z"/>
<path d="M1790 324 c0 -57 3 -75 11 -67 6 6 10 33 8 62 -2 28 -3 51 -2 51 1 0
14 -20 29 -45 14 -25 29 -44 31 -41 8 7 -51 109 -65 114 -9 3 -12 -20 -12 -74z"/>
<path d="M1878 333 c-4 -73 -2 -87 13 -78 12 8 12 145 0 145 -5 0 -11 -30 -13
-67z"/>
<path d="M1940 325 l0 -75 39 0 c22 0 43 5 46 10 4 6 -8 10 -29 10 -33 0 -36
2 -36 29 0 25 5 30 28 34 l27 4 -27 2 c-23 1 -28 6 -28 25 0 20 6 25 33 29 28
3 26 4 -10 5 l-43 2 0 -75z"/>
<path d="M2050 383 c1 -36 27 -127 37 -130 5 -2 16 24 23 59 15 66 19 64 40
-19 6 -24 15 -43 20 -43 4 0 16 31 24 69 19 82 19 81 7 81 -5 0 -13 -25 -16
-55 -4 -30 -11 -55 -15 -55 -4 0 -12 25 -19 55 -7 30 -16 55 -21 55 -5 0 -14
-19 -20 -42 -21 -83 -26 -87 -34 -26 -7 53 -27 93 -26 51z"/>
<path d="M480 330 c0 -7 215 -10 625 -10 410 0 625 3 625 10 0 7 -215 10 -625
10 -410 0 -625 -3 -625 -10z"/>
<path d="M2390 330 c0 -7 215 -10 625 -10 410 0 625 3 625 10 0 7 -215 10
-625 10 -410 0 -625 -3 -625 -10z"/>
</g>
</svg>
