<?xml version="1.0" encoding="UTF-8" standalone="no" ?>
<!DOCTYPE svg PUBLIC "-//W3C//DTD SVG 1.1//EN" "http://www.w3.org/Graphics/SVG/1.1/DTD/svg11.dtd">
<svg xmlns="http://www.w3.org/2000/svg" xmlns:xlink="http://www.w3.org/1999/xlink" version="1.1" width="500" height="250" viewBox="0 0 500 250" xml:space="preserve">
<desc>Created with Fabric.js 5.2.4</desc>
<defs>
</defs>
<rect x="0" y="0" width="100%" height="100%" fill="transparent"></rect>
<g transform="matrix(1 0 0 1 250 125)" id="c4b3d876-99f0-45f3-a7d6-db55d780997d"  >
<rect style="stroke: none; stroke-width: 1; stroke-dasharray: none; stroke-linecap: butt; stroke-dashoffset: 0; stroke-linejoin: miter; stroke-miterlimit: 4; fill: rgb(255,255,255); fill-rule: nonzero; opacity: 1; visibility: hidden;" vector-effect="non-scaling-stroke"  x="-250" y="-125" rx="0" ry="0" width="500" height="250" />
</g>
<g transform="matrix(Infinity NaN NaN Infinity 0 0)" id="20fd1e1a-767b-4a61-854f-a3a444afebe8"  >
</g>
<g transform="matrix(0.87 0 0 0.87 250 125)"  >
<g style="" vector-effect="non-scaling-stroke"   >
		<g transform="matrix(0.13 0 0 -0.13 -29.93 -18.22)"  >
<path style="stroke: none; stroke-width: 1; stroke-dasharray: none; stroke-linecap: butt; stroke-dashoffset: 0; stroke-linejoin: miter; stroke-miterlimit: 4; fill: rgb(255,255,255); fill-rule: nonzero; opacity: 1;" vector-effect="non-scaling-stroke"  transform=" translate(-1833.01, -781.13)" d="M 1972 1028 C 1965 1021 1960 986 1960 943 L 1960 869 L 1931 891 C 1868 937 1755 923 1695 860 C 1658 822 1639 748 1651 686 C 1662 627 1671 610 1714 572 C 1780 514 1864 507 1934 555 L 1970 579 L 1970 554 C 1970 533 1974 529 1993 532 L 2015 535 L 2018 774 C 2020 941 2017 1017 2009 1026 C 1995 1043 1987 1043 1972 1028 z M 1900 855 C 1947 831 1960 803 1960 727 C 1960 641 1941 606 1884 584 C 1789 548 1700 617 1700 728 C 1700 833 1809 902 1900 855 z" stroke-linecap="round" />
</g>
		<g transform="matrix(0.13 0 0 -0.13 -219.76 -17.48)"  >
<path style="stroke: none; stroke-width: 1; stroke-dasharray: none; stroke-linecap: butt; stroke-dashoffset: 0; stroke-linejoin: miter; stroke-miterlimit: 4; fill: rgb(255,255,255); fill-rule: nonzero; opacity: 1;" vector-effect="non-scaling-stroke"  transform=" translate(-409.33, -775.64)" d="M 387 1024 C 383 1020 380 910 380 780 C 380 581 382 540 395 530 C 407 520 413 520 425 530 C 438 541 440 578 438 784 C 435 1018 434 1025 415 1028 C 403 1030 391 1028 387 1024 z" stroke-linecap="round" />
</g>
		<g transform="matrix(0.13 0 0 -0.13 -69.13 -46.16)"  >
<path style="stroke: none; stroke-width: 1; stroke-dasharray: none; stroke-linecap: butt; stroke-dashoffset: 0; stroke-linejoin: miter; stroke-miterlimit: 4; fill: rgb(255,255,255); fill-rule: nonzero; opacity: 1;" vector-effect="non-scaling-stroke"  transform=" translate(-1539.06, -990.67)" d="M 1514 1016 C 1503 987 1515 955 1537 952 C 1561 948 1575 977 1565 1010 C 1558 1033 1522 1037 1514 1016 z" stroke-linecap="round" />
</g>
		<g transform="matrix(0.13 0 0 -0.13 -114.33 -28.73)"  >
<path style="stroke: none; stroke-width: 1; stroke-dasharray: none; stroke-linecap: butt; stroke-dashoffset: 0; stroke-linejoin: miter; stroke-miterlimit: 4; fill: rgb(255,255,255); fill-rule: nonzero; opacity: 1;" vector-effect="non-scaling-stroke"  transform=" translate(-1200, -860)" d="M 960 860 L 960 700 L 1065 700 L 1170 700 L 1170 800 L 1170 900 L 1305 900 L 1440 900 L 1440 960 L 1440 1020 L 1200 1020 L 960 1020 L 960 860 z M 1400 960 C 1400 941 1393 940 1270 940 L 1140 940 L 1140 840 L 1140 740 L 1065 740 L 990 740 L 990 860 L 990 980 L 1195 980 C 1393 980 1400 979 1400 960 z" stroke-linecap="round" />
</g>
		<g transform="matrix(0.13 0 0 -0.13 143.96 -17)"  >
<path style="stroke: none; stroke-width: 1; stroke-dasharray: none; stroke-linecap: butt; stroke-dashoffset: 0; stroke-linejoin: miter; stroke-miterlimit: 4; fill: rgb(255,255,255); fill-rule: nonzero; opacity: 1;" vector-effect="non-scaling-stroke"  transform=" translate(-3137.23, -771.99)" d="M 3088 1010 C 3047 998 3001 962 2984 927 C 2964 890 2954 756 2965 674 C 2971 622 2977 610 3015 574 C 3062 528 3107 517 3180 530 C 3262 545 3314 609 3314 695 C 3314 842 3141 922 3038 823 C 3013 799 3010 798 3010 816 C 3010 933 3109 998 3215 951 C 3270 927 3290 925 3290 943 C 3290 975 3205 1021 3148 1019 C 3130 1019 3103 1015 3088 1010 z M 3187 805 C 3225 794 3260 743 3260 698 C 3260 616 3197 562 3114 575 C 2993 593 2985 775 3103 809 C 3135 818 3144 817 3187 805 z" stroke-linecap="round" />
</g>
		<g transform="matrix(0.13 0 0 -0.13 200.11 -17.39)"  >
<path style="stroke: none; stroke-width: 1; stroke-dasharray: none; stroke-linecap: butt; stroke-dashoffset: 0; stroke-linejoin: miter; stroke-miterlimit: 4; fill: rgb(255,255,255); fill-rule: nonzero; opacity: 1;" vector-effect="non-scaling-stroke"  transform=" translate(-3558.31, -774.9)" d="M 3488 1007 C 3418 975 3391 926 3383 817 C 3377 724 3391 631 3417 595 C 3467 528 3578 509 3655 555 C 3720 592 3735 633 3735 765 C 3735 892 3730 917 3694 960 C 3648 1015 3554 1036 3488 1007 z M 3640 943 C 3659 926 3675 899 3680 875 C 3691 829 3693 732 3683 677 C 3676 629 3631 583 3584 574 C 3538 565 3474 594 3454 632 C 3435 669 3425 772 3435 846 C 3441 893 3448 910 3475 937 C 3504 966 3515 970 3559 970 C 3600 970 3615 965 3640 943 z" stroke-linecap="round" />
</g>
		<g transform="matrix(0.13 0 0 -0.13 88.15 -16.77)"  >
<path style="stroke: none; stroke-width: 1; stroke-dasharray: none; stroke-linecap: butt; stroke-dashoffset: 0; stroke-linejoin: miter; stroke-miterlimit: 4; fill: rgb(255,255,255); fill-rule: nonzero; opacity: 1;" vector-effect="non-scaling-stroke"  transform=" translate(-2718.66, -770.29)" d="M 2560 990 C 2560 971 2567 970 2683 970 L 2805 969 L 2732 902 C 2643 820 2636 779 2714 801 C 2774 818 2840 762 2840 695 C 2840 661 2816 615 2788 596 C 2762 577 2682 575 2646 591 C 2623 602 2590 653 2590 680 C 2590 686 2580 690 2568 688 C 2549 686 2546 680 2548 656 C 2554 604 2579 569 2627 548 C 2723 506 2841 543 2876 626 C 2915 718 2868 826 2781 845 L 2753 851 L 2816 912 C 2915 1007 2912 1010 2720 1010 C 2567 1010 2560 1009 2560 990 z" stroke-linecap="round" />
</g>
		<g transform="matrix(0.13 0 0 -0.13 -180.44 -10.69)"  >
<path style="stroke: none; stroke-width: 1; stroke-dasharray: none; stroke-linecap: butt; stroke-dashoffset: 0; stroke-linejoin: miter; stroke-miterlimit: 4; fill: rgb(255,255,255); fill-rule: nonzero; opacity: 1;" vector-effect="non-scaling-stroke"  transform=" translate(-704.2, -724.66)" d="M 527 913 C 523 910 520 822 520 718 L 520 529 L 543 532 C 564 535 565 540 570 655 C 573 721 580 784 587 795 C 613 841 649 863 703 868 C 749 872 760 869 788 845 C 829 810 840 768 840 637 C 840 530 840 529 863 532 C 884 535 885 539 888 655 C 891 796 878 846 824 886 C 762 934 654 931 601 881 L 570 852 L 570 880 C 570 896 563 910 554 914 C 535 921 535 921 527 913 z" stroke-linecap="round" />
</g>
		<g transform="matrix(0.13 0 0 -0.13 -69.57 -10.28)"  >
<path style="stroke: none; stroke-width: 1; stroke-dasharray: none; stroke-linecap: butt; stroke-dashoffset: 0; stroke-linejoin: miter; stroke-miterlimit: 4; fill: rgb(255,255,255); fill-rule: nonzero; opacity: 1;" vector-effect="non-scaling-stroke"  transform=" translate(-1535.7, -721.58)" d="M 1520 906 C 1513 897 1510 832 1512 714 C 1515 537 1515 535 1538 532 L 1560 529 L 1560 718 C 1560 873 1557 909 1546 913 C 1538 916 1527 913 1520 906 z" stroke-linecap="round" />
</g>
		<g transform="matrix(0.13 0 0 -0.13 29.98 -10.7)"  >
<path style="stroke: none; stroke-width: 1; stroke-dasharray: none; stroke-linecap: butt; stroke-dashoffset: 0; stroke-linejoin: miter; stroke-miterlimit: 4; fill: rgb(255,255,255); fill-rule: nonzero; opacity: 1;" vector-effect="non-scaling-stroke"  transform=" translate(-2282.36, -724.73)" d="M 2200 909 C 2131 881 2087 809 2087 725 C 2087 606 2162 530 2280 530 C 2366 530 2449 577 2418 608 C 2410 616 2397 614 2369 599 C 2345 587 2311 580 2275 580 C 2226 580 2216 584 2186 613 C 2167 630 2149 655 2145 668 L 2139 690 L 2298 690 C 2479 690 2486 693 2474 757 C 2463 820 2425 876 2377 899 C 2330 922 2244 926 2200 909 z M 2349 856 C 2383 838 2395 823 2415 777 L 2430 740 L 2285 740 C 2125 740 2124 741 2155 801 C 2187 862 2283 890 2349 856 z" stroke-linecap="round" />
</g>
		<g transform="matrix(0.13 0 0 -0.13 -115 -7.4)"  >
<path style="stroke: none; stroke-width: 1; stroke-dasharray: none; stroke-linecap: butt; stroke-dashoffset: 0; stroke-linejoin: miter; stroke-miterlimit: 4; fill: rgb(255,255,255); fill-rule: nonzero; opacity: 1;" vector-effect="non-scaling-stroke"  transform=" translate(-1195, -700)" d="M 1220 760 L 1220 660 L 1090 660 L 960 660 L 960 600 L 960 540 L 1195 540 L 1430 540 L 1430 700 L 1430 860 L 1325 860 L 1220 860 L 1220 760 z M 1400 700 L 1400 580 L 1195 580 C 997 580 990 581 990 600 C 990 619 997 620 1120 620 L 1250 620 L 1250 720 L 1250 820 L 1325 820 L 1400 820 L 1400 700 z" stroke-linecap="round" />
</g>
		<g transform="matrix(0.13 0 0 -0.13 29.89 42.17)"  >
<path style="stroke: none; stroke-width: 1; stroke-dasharray: none; stroke-linecap: butt; stroke-dashoffset: 0; stroke-linejoin: miter; stroke-miterlimit: 4; fill: rgb(255,255,255); fill-rule: nonzero; opacity: 1;" vector-effect="non-scaling-stroke"  transform=" translate(-2281.65, -328.25)" d="M 2258 399 C 2248 394 2240 378 2240 364 C 2240 345 2248 336 2276 324 C 2326 303 2319 274 2265 276 C 2230 278 2228 276 2245 264 C 2270 246 2295 246 2314 266 C 2339 291 2333 308 2289 335 C 2243 365 2243 386 2289 384 C 2306 383 2320 386 2320 391 C 2320 396 2316 400 2311 400 C 2306 400 2296 402 2288 405 C 2281 407 2267 405 2258 399 z" stroke-linecap="round" />
</g>
		<g transform="matrix(0.13 0 0 -0.13 -30.48 42.37)"  >
<path style="stroke: none; stroke-width: 1; stroke-dasharray: none; stroke-linecap: butt; stroke-dashoffset: 0; stroke-linejoin: miter; stroke-miterlimit: 4; fill: rgb(255,255,255); fill-rule: nonzero; opacity: 1;" vector-effect="non-scaling-stroke"  transform=" translate(-1828.87, -326.73)" d="M 1790 324 C 1790 267 1793 249 1801 257 C 1807 263 1811 290 1809 319 C 1807 347 1806 370 1807 370 C 1808 370 1821 350 1836 325 C 1850 300 1865 281 1867 284 C 1875 291 1816 393 1802 398 C 1793 401 1790 378 1790 324 z" stroke-linecap="round" />
</g>
		<g transform="matrix(0.13 0 0 -0.13 -22.59 42.43)"  >
<path style="stroke: none; stroke-width: 1; stroke-dasharray: none; stroke-linecap: butt; stroke-dashoffset: 0; stroke-linejoin: miter; stroke-miterlimit: 4; fill: rgb(255,255,255); fill-rule: nonzero; opacity: 1;" vector-effect="non-scaling-stroke"  transform=" translate(-1888.1, -326.29)" d="M 1878 333 C 1874 260 1876 246 1891 255 C 1903 263 1903 400 1891 400 C 1886 400 1880 370 1878 333 z" stroke-linecap="round" />
</g>
		<g transform="matrix(0.13 0 0 -0.13 -9.95 42.6)"  >
<path style="stroke: none; stroke-width: 1; stroke-dasharray: none; stroke-linecap: butt; stroke-dashoffset: 0; stroke-linejoin: miter; stroke-miterlimit: 4; fill: rgb(255,255,255); fill-rule: nonzero; opacity: 1;" vector-effect="non-scaling-stroke"  transform=" translate(-1982.88, -325)" d="M 1940 325 L 1940 250 L 1979 250 C 2001 250 2022 255 2025 260 C 2029 266 2017 270 1996 270 C 1963 270 1960 272 1960 299 C 1960 324 1965 329 1988 333 L 2015 337 L 1988 339 C 1965 340 1960 345 1960 364 C 1960 384 1966 389 1993 393 C 2021 396 2019 397 1983 398 L 1940 400 L 1940 325 z" stroke-linecap="round" />
</g>
		<g transform="matrix(0.13 0 0 -0.13 9.62 42.57)"  >
<path style="stroke: none; stroke-width: 1; stroke-dasharray: none; stroke-linecap: butt; stroke-dashoffset: 0; stroke-linejoin: miter; stroke-miterlimit: 4; fill: rgb(255,255,255); fill-rule: nonzero; opacity: 1;" vector-effect="non-scaling-stroke"  transform=" translate(-2129.62, -325.27)" d="M 2050 383 C 2051 347 2077 256 2087 253 C 2092 251 2103 277 2110 312 C 2125 378 2129 376 2150 293 C 2156 269 2165 250 2170 250 C 2174 250 2186 281 2194 319 C 2213 401 2213 400 2201 400 C 2196 400 2188 375 2185 345 C 2181 315 2174 290 2170 290 C 2166 290 2158 315 2151 345 C 2144 375 2135 400 2130 400 C 2125 400 2116 381 2110 358 C 2089 275 2084 271 2076 332 C 2069 385 2049 425 2050 383 z" stroke-linecap="round" />
</g>
		<g transform="matrix(0.13 0 0 -0.13 -127 41.93)"  >
<path style="stroke: none; stroke-width: 1; stroke-dasharray: none; stroke-linecap: butt; stroke-dashoffset: 0; stroke-linejoin: miter; stroke-miterlimit: 4; fill: rgb(255,255,255); fill-rule: nonzero; opacity: 1;" vector-effect="non-scaling-stroke"  transform=" translate(-1105, -330)" d="M 480 330 C 480 323 695 320 1105 320 C 1515 320 1730 323 1730 330 C 1730 337 1515 340 1105 340 C 695 340 480 337 480 330 z" stroke-linecap="round" />
</g>
		<g transform="matrix(0.13 0 0 -0.13 127.67 41.93)"  >
<path style="stroke: none; stroke-width: 1; stroke-dasharray: none; stroke-linecap: butt; stroke-dashoffset: 0; stroke-linejoin: miter; stroke-miterlimit: 4; fill: rgb(255,255,255); fill-rule: nonzero; opacity: 1;" vector-effect="non-scaling-stroke"  transform=" translate(-3015, -330)" d="M 2390 330 C 2390 323 2605 320 3015 320 C 3425 320 3640 323 3640 330 C 3640 337 3425 340 3015 340 C 2605 340 2390 337 2390 330 z" stroke-linecap="round" />
</g>
</g>
</g>
</svg>